<svg class="svg-icon" style="width: 1em; height: 1em;vertical-align: middle;fill: currentColor;overflow: hidden;" viewBox="0 0 1024 1024" version="1.1" xmlns="http://www.w3.org/2000/svg"><path d="M512.3 1.9c-281.8 0-511 229.2-511 511 0 281.7 229.2 511 511 511 281.7 0 511-229.3 511-511-0.1-281.9-229.3-511-511-511z m0 943.4c-238.5 0-432.5-194-432.5-432.4 0-238.5 194-432.5 432.5-432.5 238.4 0 432.4 194 432.4 432.5 0 238.4-194 432.4-432.4 432.4z" fill="#1296DB" /><path d="M213.6 355.7c-25 0-45.4 20.3-45.4 45.4 0 25.1 20.4 45.5 45.4 45.5 25.2 0 45.5-20.4 45.5-45.5s-20.3-45.4-45.5-45.4zM836.9 380.2c-25.1 0-45.4 20.3-45.4 45.5s20.3 45.5 45.4 45.5 45.5-20.3 45.5-45.5-20.4-45.5-45.5-45.5zM551.6 584.6V321.2c0-21.7-17.5-39.3-39.3-39.3-21.7 0-39.4 17.6-39.4 39.3v263.4c-36.8 15.4-62.6 51.7-62.6 94 0 56.3 45.6 102 102 102 56.3 0 101.9-45.6 101.9-102 0-42.3-25.8-78.6-62.6-94zM326 208.2c-25.1 0-45.5 20.4-45.5 45.5s20.4 45.4 45.5 45.4 45.4-20.3 45.4-45.4-20.3-45.5-45.4-45.5zM724.7 208.2c-25.1 0-45.4 20.4-45.4 45.5s20.3 45.4 45.4 45.4 45.4-20.3 45.4-45.4-20.3-45.5-45.4-45.5z" fill="#1296DB" /></svg>